<svg width="581" height="581" viewBox="0 0 581 581" fill="none" xmlns="http://www.w3.org/2000/svg">
<g>
<path d="M74.1218 499.98C77.7178 499.98 80.6845 501.24 83.2017 503.76C85.7189 506.28 86.9775 509.34 86.9775 512.85V557.49H41.3982C37.8022 557.49 34.8355 556.23 32.3183 553.71C29.8011 551.19 28.5425 548.13 28.5425 544.62V523.38H76.2794V512.85C76.2794 512.22 76.0996 511.77 75.6501 511.32C75.2006 510.87 74.7511 510.69 74.1218 510.69H28.5425V499.98H74.1218ZM76.2794 546.78V534.09H39.2406V544.62C39.2406 545.25 39.4204 545.7 39.8699 546.15C40.3194 546.6 40.7689 546.78 41.3982 546.78H76.2794V546.78ZM179.395 499.98H190.812L169.236 557.49H160.516L141.187 514.74L122.937 557.49L122.758 557.4L122.848 557.49H114.217L91.6523 499.98H102.98L118.532 538.14L135.074 499.98H147.3L164.831 538.14L179.395 499.98ZM239.807 499.98C243.403 499.98 246.37 501.24 248.887 503.76C251.405 506.28 252.663 509.34 252.663 512.85V534.09H204.926V544.62C204.926 545.25 205.106 545.7 205.556 546.15C206.005 546.6 206.455 546.78 207.084 546.78H252.663V557.49H207.084C203.488 557.49 200.521 556.23 198.004 553.71C195.487 551.19 194.228 548.13 194.228 544.62V512.85C194.228 509.25 195.487 506.28 198.004 503.76C200.521 501.24 203.578 499.98 207.084 499.98H239.807V499.98ZM204.926 523.38H241.965V512.85C241.965 512.22 241.785 511.77 241.336 511.32C240.886 510.87 240.437 510.69 239.807 510.69H207.084C206.455 510.69 206.005 510.87 205.556 511.32C205.106 511.77 204.926 512.22 204.926 512.85V523.38V523.38ZM320.897 512.94V515.1H310.199V512.94C310.199 512.31 310.019 511.86 309.57 511.41C309.12 510.96 308.671 510.78 308.042 510.78H275.318C274.689 510.78 274.239 510.96 273.79 511.41C273.34 511.86 273.16 512.31 273.16 512.94V521.31C273.16 521.94 273.34 522.39 273.79 522.84C274.239 523.29 274.689 523.47 275.318 523.47H308.042C311.638 523.47 314.604 524.73 317.121 527.25C319.639 529.77 320.897 532.83 320.897 536.34V544.71C320.897 548.31 319.639 551.28 317.121 553.8C314.604 556.32 311.548 557.58 308.042 557.58H275.318C271.722 557.58 268.755 556.32 266.238 553.8C263.721 551.28 262.462 548.22 262.462 544.71V542.55H273.16V544.71C273.16 545.34 273.34 545.79 273.79 546.24C274.239 546.69 274.689 546.87 275.318 546.87H308.042C308.671 546.87 309.12 546.69 309.57 546.24C310.019 545.79 310.199 545.34 310.199 544.71V536.34C310.199 535.71 310.019 535.26 309.57 534.81C309.12 534.36 308.671 534.18 308.042 534.18H275.318C271.722 534.18 268.755 532.92 266.238 530.4C263.721 527.88 262.462 524.82 262.462 521.31V512.94C262.462 509.34 263.721 506.37 266.238 503.85C268.755 501.33 271.812 500.07 275.318 500.07H308.042C311.638 500.07 314.604 501.33 317.121 503.85C319.639 506.28 320.897 509.34 320.897 512.94ZM343.552 499.98H376.276C379.872 499.98 382.838 501.24 385.356 503.76C387.873 506.28 389.131 509.34 389.131 512.85V544.62C389.131 548.22 387.873 551.19 385.356 553.71C382.838 556.23 379.782 557.49 376.276 557.49H343.552C339.956 557.49 336.989 556.23 334.472 553.71C331.955 551.19 330.696 548.13 330.696 544.62V512.85C330.696 509.25 331.955 506.28 334.472 503.76C336.989 501.24 340.046 499.98 343.552 499.98V499.98ZM376.276 510.69H343.552C342.923 510.69 342.473 510.87 342.024 511.32C341.574 511.77 341.394 512.22 341.394 512.85V544.62C341.394 545.25 341.574 545.7 342.024 546.15C342.473 546.6 342.923 546.78 343.552 546.78H376.276C376.905 546.78 377.354 546.6 377.804 546.15C378.253 545.7 378.433 545.25 378.433 544.62V512.85C378.433 512.22 378.253 511.77 377.804 511.32C377.354 510.96 376.905 510.69 376.276 510.69ZM472.918 499.98C476.514 499.98 479.481 501.24 481.998 503.76C484.515 506.28 485.774 509.34 485.774 512.85V557.49H475.166V512.85C475.166 512.22 474.986 511.77 474.536 511.32C474.087 510.87 473.547 510.69 472.918 510.69H450.263C449.634 510.69 449.185 510.87 448.735 511.32C448.286 511.77 448.106 512.22 448.106 512.85V557.49H437.408V512.85C437.408 512.22 437.228 511.77 436.778 511.32C436.329 510.87 435.879 510.69 435.25 510.69H412.505C411.876 510.69 411.427 510.87 410.977 511.32C410.528 511.77 410.348 512.22 410.348 512.85V557.49H399.65V499.98H472.918ZM541.692 499.98C545.288 499.98 548.254 501.24 550.772 503.76C553.289 506.28 554.547 509.34 554.547 512.85V534.09H506.81V544.62C506.81 545.25 506.99 545.7 507.44 546.15C507.889 546.6 508.339 546.78 508.968 546.78H554.547V557.49H508.968C505.372 557.49 502.405 556.23 499.888 553.71C497.371 551.19 496.112 548.13 496.112 544.62V512.85C496.112 509.25 497.371 506.28 499.888 503.76C502.405 501.24 505.462 499.98 508.968 499.98H541.692V499.98ZM506.81 523.38H543.849V512.85C543.849 512.22 543.669 511.77 543.22 511.32C542.77 510.87 542.321 510.69 541.692 510.69H508.968C508.339 510.69 507.889 510.87 507.44 511.32C506.99 511.77 506.81 512.22 506.81 512.85V523.38V523.38Z" fill="#1B1B1B"/>
<path d="M553.665 291.553L418.965 168.106L400.017 188.74L512.267 291.553H69.8226L182.073 188.65L163.125 168.016L28.4248 291.553H28.335V372.923C28.335 409.706 63.806 439.671 107.359 439.671H190.424C233.977 439.671 269.448 409.706 269.448 372.923V319.454H312.552V372.923C312.552 409.706 348.023 439.671 391.576 439.671H474.641C518.194 439.671 553.665 409.706 553.665 372.923V291.553Z" fill="#FF00D6"/>
<circle cx="290.5" cy="200.5" r="180.5" fill="url(#paint0_radial_28_2)"/>
<path d="M329.64 221.402C327.553 221.127 325.401 220.982 323.187 220.982C320.972 220.982 318.82 221.127 316.733 221.402L301.9 106.7C308.892 105.78 315.999 105.309 323.187 105.309C330.374 105.309 337.481 105.78 344.473 106.7L329.64 221.402Z" fill="white"/>
<path d="M304.5 224.699C300.56 226.347 296.855 228.516 293.475 231.136L223.6 139.416C234.834 130.707 247.247 123.422 260.573 117.848L304.5 224.699Z" fill="white"/>
<path d="M284.397 240.293C281.8 243.702 279.65 247.439 278.016 251.414L172.086 207.105C177.612 193.663 184.834 181.142 193.468 169.81L284.397 240.293Z" fill="white"/>
<path d="M274.747 263.753C274.475 265.858 274.141 268.029 274.141 270.262V278.043H159.654V270.262C159.654 263.013 160.121 255.844 161.034 248.791L274.747 263.753Z" fill="white"/>
<path d="M353.381 231.847C350.025 229.199 346.346 226.483 342.432 224.817L386.056 117.36C399.29 122.993 411.617 130.355 422.774 139.156L353.381 231.847Z" fill="url(#paint1_linear_28_2)"/>
<path d="M28 291V373.2C28 410.563 63.4825 441 107.05 441H190.141C233.709 441 269.191 410.563 269.191 373.2V318.887H312.309V373.2C312.309 410.563 347.791 441 391.359 441H474.45C518.018 441 553.5 410.563 553.5 373.2V291H28Z" fill="url(#paint2_linear_28_2)"/>
</g>
<defs>
<radialGradient id="paint0_radial_28_2" cx="0" cy="0" r="1" gradientUnits="userSpaceOnUse" gradientTransform="translate(352.232 303.448) rotate(-130.984) scale(375.481 374.282)">
<stop stop-color="#2C2C2C"/>
<stop offset="1" stop-color="#121212"/>
</radialGradient>
<linearGradient id="paint1_linear_28_2" x1="348.861" y1="216" x2="408.773" y2="136.775" gradientUnits="userSpaceOnUse">
<stop stop-color="#FAFF02"/>
<stop offset="1" stop-color="#FF00D6"/>
</linearGradient>
<linearGradient id="paint2_linear_28_2" x1="494.316" y1="335.694" x2="72.1472" y2="422.493" gradientUnits="userSpaceOnUse">
<stop stop-color="#FF01D7"/>
<stop offset="1" stop-color="#FAFF02"/>
</linearGradient>
</defs>
</svg>
